# xmcd
#
# Track frame offsets:
#	150
#	8524
#	32905
#	48411
#	66707
#	82975
#	100879
#	118359
#	137546
#	153860
#	165831
#	184946
#	201610
#	219343
#	228704
#	231504
#	244791
#
# Disc length: 3654 seconds
#
# Revision: 1
# Processed by: cddbd v1.5.1PL2 Copyright (c) Steve Scherf et al.
# Submitted via: EasyCDDAExtractor 7.1.0.1
#
DISCID=ee0e4411
DTITLE=Bauchklang - Many People
DYEAR=2005
DGENRE=Vocal
TTITLE0=Intro
TTITLE1=12/8 
TTITLE2=Rhythm Of Time
TTITLE3=Good You Do
TTITLE4=Barking News
TTITLE5=Radio
TTITLE6=Navigator
TTITLE7=Many People
TTITLE8=Sorry For Delay
TTITLE9=Fancy Dress
TTITLE10=Record
TTITLE11=Every Day
TTITLE12=Don't Step
TTITLE13=Paleo
TTITLE14=Warp
TTITLE15=Another View
TTITLE16=Cypress Trees (Remix)
EXTD=
EXTT0=
EXTT1=
EXTT2=
EXTT3=
EXTT4=
EXTT5=
EXTT6=
EXTT7=
EXTT8=
EXTT9=
EXTT10=
EXTT11=
EXTT12=
EXTT13=
EXTT14=
EXTT15=
EXTT16=
PLAYORDER=
